<svg width="80" height="80" viewBox="0 0 80 80" fill="none" xmlns="http://www.w3.org/2000/svg">
<g clip-path="url(#clip0_5819_51785)">
<path d="M77.5812 20.2891C75.4812 12.5594 67.4422 4.51875 59.7109 2.41875C54.9703 1.2375 48.6203 0.0203125 40 0C31.3797 0.0203125 25.0297 1.2375 20.2891 2.41875C12.5594 4.51875 4.51875 12.5578 2.41875 20.2891C1.2375 25.0297 0.0203125 31.3797 0 40C0.0203125 48.6203 1.2375 54.9703 2.41875 59.7109C4.51875 67.4422 12.5594 75.4812 20.2891 77.5812C25.0297 78.7625 31.3828 79.9797 40 80C48.6188 79.9797 54.9703 78.7625 59.7109 77.5812C67.4422 75.4812 75.4812 67.4422 77.5812 59.7109C78.7625 54.9703 79.9797 48.6172 80 40C79.9797 31.3797 78.7625 25.0297 77.5812 20.2891Z" fill="#D9F4DD"/>
<path d="M40 13.4375C34.7464 13.4375 29.6109 14.9954 25.2427 17.9141C20.8745 20.8328 17.4699 24.9813 15.4595 29.835C13.449 34.6886 12.923 40.0295 13.9479 45.1821C14.9728 50.3347 17.5027 55.0677 21.2175 58.7825C24.9323 62.4974 29.6653 65.0272 34.8179 66.0521C39.9705 67.077 45.3114 66.551 50.165 64.5406C55.0187 62.5301 59.1672 59.1255 62.0859 54.7573C65.0046 50.3892 66.5625 45.2536 66.5625 40C66.5625 32.9552 63.764 26.1989 58.7825 21.2175C53.8011 16.236 47.0448 13.4375 40 13.4375Z" fill="url(#paint0_linear_5819_51785)"/>
<path d="M55.1566 35.6023L39.1831 52.3711C38.7481 52.8279 38.2254 53.1921 37.6463 53.4421C37.0672 53.692 36.4436 53.8225 35.8128 53.8258H35.7925C35.1654 53.8257 34.5447 53.6999 33.9672 53.4556C33.3896 53.2114 32.8669 52.8538 32.43 52.4039L23.9566 43.6742C23.4958 43.2401 23.1277 42.7171 22.8745 42.1368C22.6213 41.5566 22.4883 40.931 22.4835 40.2979C22.4787 39.6648 22.6022 39.0373 22.8466 38.4533C23.0909 37.8692 23.451 37.3407 23.9052 36.8997C24.3593 36.4586 24.8982 36.1141 25.4891 35.8869C26.0801 35.6598 26.7109 35.5547 27.3436 35.578C27.9762 35.6014 28.5976 35.7526 29.1703 36.0226C29.7429 36.2927 30.2549 36.6759 30.6753 37.1492L35.7535 42.382L48.3613 29.1414C48.7855 28.6952 49.2935 28.337 49.8561 28.0871C50.4188 27.8372 51.0252 27.7006 51.6407 27.6851C52.2562 27.6696 52.8687 27.7754 53.4433 27.9966C54.0178 28.2178 54.5432 28.55 54.9894 28.9742C55.4356 29.3984 55.7938 29.9064 56.0437 30.4691C56.2936 31.0318 56.4302 31.6382 56.4457 32.2537C56.4612 32.8691 56.3554 33.4816 56.1342 34.0562C55.913 34.6308 55.5808 35.1562 55.1566 35.6023Z" fill="url(#paint1_linear_5819_51785)"/>
</g>
<defs>
<linearGradient id="paint0_linear_5819_51785" x1="58.7859" y1="58.7859" x2="21.2141" y2="21.2141" gradientUnits="userSpaceOnUse">
<stop stop-color="#01B65C"/>
<stop offset="0.52" stop-color="#01B65C"/>
<stop offset="1" stop-color="#B4F4C3"/>
</linearGradient>
<linearGradient id="paint1_linear_5819_51785" x1="47.2878" y1="44.2695" x2="32.0628" y2="29.043" gradientUnits="userSpaceOnUse">
<stop stop-color="#B4F4C3"/>
<stop offset="0.57" stop-color="white"/>
<stop offset="1" stop-color="white"/>
</linearGradient>
<clipPath id="clip0_5819_51785">
<rect width="80" height="80" fill="white"/>
</clipPath>
</defs>
</svg>
